<mxfile host="app.diagrams.net" modified="2023-10-18T11:27:23.569Z" agent="Mozilla/5.0 (Windows NT 10.0; Win64; x64) AppleWebKit/537.36 (KHTML, like Gecko) Chrome/118.0.0.0 Safari/537.36" etag="12sFnqknhmkpBTOVVEj2" version="22.0.4" type="google">
  <diagram id="C5RBs43oDa-KdzZeNtuy" name="Page-1">
    <mxGraphModel grid="1" page="1" gridSize="10" guides="1" tooltips="1" connect="1" arrows="1" fold="1" pageScale="1" pageWidth="827" pageHeight="1169" math="0" shadow="0">
      <root>
        <mxCell id="WIyWlLk6GJQsqaUBKTNV-0" />
        <mxCell id="WIyWlLk6GJQsqaUBKTNV-1" parent="WIyWlLk6GJQsqaUBKTNV-0" />
        <mxCell id="2iRlPU97kEJJlgAq3W9q-2" value="" style="endArrow=none;html=1;rounded=0;entryX=0.125;entryY=0.82;entryDx=0;entryDy=0;entryPerimeter=0;exitX=0.5;exitY=0;exitDx=0;exitDy=0;exitPerimeter=0;" edge="1" parent="WIyWlLk6GJQsqaUBKTNV-1" source="2iRlPU97kEJJlgAq3W9q-4" target="2iRlPU97kEJJlgAq3W9q-0">
          <mxGeometry width="50" height="50" relative="1" as="geometry">
            <mxPoint x="130" y="278" as="sourcePoint" />
            <mxPoint x="307.03999999999996" y="106" as="targetPoint" />
          </mxGeometry>
        </mxCell>
        <mxCell id="2iRlPU97kEJJlgAq3W9q-5" value="" style="endArrow=none;html=1;rounded=0;entryX=0.25;entryY=0.92;entryDx=0;entryDy=0;entryPerimeter=0;" edge="1" parent="WIyWlLk6GJQsqaUBKTNV-1" source="2iRlPU97kEJJlgAq3W9q-6" target="2iRlPU97kEJJlgAq3W9q-0">
          <mxGeometry width="50" height="50" relative="1" as="geometry">
            <mxPoint x="320" y="290" as="sourcePoint" />
            <mxPoint x="330" y="70" as="targetPoint" />
          </mxGeometry>
        </mxCell>
        <mxCell id="2iRlPU97kEJJlgAq3W9q-9" value="" style="endArrow=none;html=1;rounded=0;entryX=0.6;entryY=1.02;entryDx=0;entryDy=0;entryPerimeter=0;exitX=0.5;exitY=0;exitDx=0;exitDy=0;exitPerimeter=0;" edge="1" parent="WIyWlLk6GJQsqaUBKTNV-1" source="2iRlPU97kEJJlgAq3W9q-8" target="2iRlPU97kEJJlgAq3W9q-0">
          <mxGeometry width="50" height="50" relative="1" as="geometry">
            <mxPoint x="440" y="270" as="sourcePoint" />
            <mxPoint x="397" y="115" as="targetPoint" />
            <Array as="points" />
          </mxGeometry>
        </mxCell>
        <mxCell id="2iRlPU97kEJJlgAq3W9q-10" value="" style="endArrow=none;html=1;rounded=0;exitX=0.5;exitY=0;exitDx=0;exitDy=0;exitPerimeter=0;entryX=0.792;entryY=0.92;entryDx=0;entryDy=0;entryPerimeter=0;" edge="1" parent="WIyWlLk6GJQsqaUBKTNV-1" source="2iRlPU97kEJJlgAq3W9q-7" target="2iRlPU97kEJJlgAq3W9q-0">
          <mxGeometry width="50" height="50" relative="1" as="geometry">
            <mxPoint x="580" y="260" as="sourcePoint" />
            <mxPoint x="410" y="100" as="targetPoint" />
          </mxGeometry>
        </mxCell>
        <mxCell id="2iRlPU97kEJJlgAq3W9q-23" value="" style="endArrow=none;html=1;rounded=0;exitX=0;exitY=0;exitDx=0;exitDy=0;entryX=0.967;entryY=0.66;entryDx=0;entryDy=0;entryPerimeter=0;" edge="1" parent="WIyWlLk6GJQsqaUBKTNV-1" source="2iRlPU97kEJJlgAq3W9q-20" target="2iRlPU97kEJJlgAq3W9q-0">
          <mxGeometry width="50" height="50" relative="1" as="geometry">
            <mxPoint x="591" y="275" as="sourcePoint" />
            <mxPoint x="431" y="112" as="targetPoint" />
          </mxGeometry>
        </mxCell>
        <mxCell id="2iRlPU97kEJJlgAq3W9q-24" value="" style="endArrow=none;html=1;rounded=0;exitX=0;exitY=0;exitDx=0;exitDy=0;entryX=1;entryY=0.5;entryDx=0;entryDy=0;entryPerimeter=0;" edge="1" parent="WIyWlLk6GJQsqaUBKTNV-1" source="2iRlPU97kEJJlgAq3W9q-22" target="2iRlPU97kEJJlgAq3W9q-0">
          <mxGeometry width="50" height="50" relative="1" as="geometry">
            <mxPoint x="713.04" y="263" as="sourcePoint" />
            <mxPoint x="420" y="100" as="targetPoint" />
            <Array as="points" />
          </mxGeometry>
        </mxCell>
        <mxCell id="2iRlPU97kEJJlgAq3W9q-54" value="" style="group" connectable="0" vertex="1" parent="WIyWlLk6GJQsqaUBKTNV-1">
          <mxGeometry x="650" y="150" width="120" height="50" as="geometry" />
        </mxCell>
        <object label="" id="2iRlPU97kEJJlgAq3W9q-7">
          <mxCell style="ellipse;whiteSpace=wrap;html=1;points=[[0,0,0,0,0],[0,0.5,0,0,0],[0,1,0,0,0],[0.5,0,0,0,0],[0.5,1,0,0,0],[1,0,0,0,0],[1,0.5,0,0,0],[1,1,0,0,0]];" vertex="1" parent="2iRlPU97kEJJlgAq3W9q-54">
            <mxGeometry width="120" height="50" as="geometry" />
          </mxCell>
        </object>
        <mxCell id="2iRlPU97kEJJlgAq3W9q-19" value="&lt;h1&gt;&lt;font style=&quot;font-size: 11px; font-weight: normal;&quot;&gt;Résztvevő&lt;/font&gt;&lt;/h1&gt;" style="text;html=1;strokeColor=none;fillColor=none;spacing=5;spacingTop=-20;whiteSpace=wrap;overflow=hidden;rounded=0;" vertex="1" parent="2iRlPU97kEJJlgAq3W9q-54">
          <mxGeometry x="26.5" y="1" width="71" height="40" as="geometry" />
        </mxCell>
        <mxCell id="2iRlPU97kEJJlgAq3W9q-56" value="" style="group" connectable="0" vertex="1" parent="WIyWlLk6GJQsqaUBKTNV-1">
          <mxGeometry x="1350" y="135" width="120" height="50" as="geometry" />
        </mxCell>
        <object label="" id="2iRlPU97kEJJlgAq3W9q-21">
          <mxCell style="ellipse;whiteSpace=wrap;html=1;points=[[0,0,0,0,0],[0,0.5,0,0,0],[0,1,0,0,0],[0.5,0,0,0,0],[0.5,1,0,0,0],[1,0,0,0,0],[1,0.5,0,0,0],[1,1,0,0,0]];" vertex="1" parent="2iRlPU97kEJJlgAq3W9q-56">
            <mxGeometry width="120" height="50" as="geometry" />
          </mxCell>
        </object>
        <mxCell id="2iRlPU97kEJJlgAq3W9q-22" value="&lt;h1&gt;&lt;font style=&quot;font-size: 11px; font-weight: normal;&quot;&gt;FESZ_T&lt;/font&gt;&lt;/h1&gt;" style="text;html=1;strokeColor=none;fillColor=none;spacing=5;spacingTop=-20;whiteSpace=wrap;overflow=hidden;rounded=0;" vertex="1" parent="2iRlPU97kEJJlgAq3W9q-56">
          <mxGeometry x="30" width="71" height="40" as="geometry" />
        </mxCell>
        <mxCell id="2iRlPU97kEJJlgAq3W9q-68" value="" style="group" connectable="0" vertex="1" parent="WIyWlLk6GJQsqaUBKTNV-1">
          <mxGeometry x="294" y="-50" width="120" height="50" as="geometry" />
        </mxCell>
        <object label="" id="2iRlPU97kEJJlgAq3W9q-0">
          <mxCell style="ellipse;whiteSpace=wrap;html=1;points=[[0,0,0,0,0],[0,0.5,0,0,0],[0,1,0,0,0],[0.5,0,0,0,0],[0.5,1,0,0,0],[1,0,0,0,0],[1,0.5,0,0,0],[1,1,0,0,0]];" vertex="1" parent="2iRlPU97kEJJlgAq3W9q-68">
            <mxGeometry width="120" height="50" as="geometry" />
          </mxCell>
        </object>
        <mxCell id="2iRlPU97kEJJlgAq3W9q-15" value="&lt;h1&gt;&lt;font style=&quot;font-size: 11px; font-weight: normal;&quot;&gt;Fesztival_VBNYZW&lt;/font&gt;&lt;/h1&gt;" style="text;html=1;strokeColor=none;fillColor=none;spacing=5;spacingTop=-20;whiteSpace=wrap;overflow=hidden;rounded=0;" vertex="1" parent="2iRlPU97kEJJlgAq3W9q-68">
          <mxGeometry x="5" width="110" height="40" as="geometry" />
        </mxCell>
        <mxCell id="2iRlPU97kEJJlgAq3W9q-70" style="edgeStyle=orthogonalEdgeStyle;rounded=0;orthogonalLoop=1;jettySize=auto;html=1;exitX=0.5;exitY=1;exitDx=0;exitDy=0;" edge="1" parent="2iRlPU97kEJJlgAq3W9q-68" source="2iRlPU97kEJJlgAq3W9q-15" target="2iRlPU97kEJJlgAq3W9q-15">
          <mxGeometry relative="1" as="geometry" />
        </mxCell>
        <mxCell id="2iRlPU97kEJJlgAq3W9q-104" value="" style="group" connectable="0" vertex="1" parent="WIyWlLk6GJQsqaUBKTNV-1">
          <mxGeometry x="-290" y="160" width="290" height="190" as="geometry" />
        </mxCell>
        <mxCell id="2iRlPU97kEJJlgAq3W9q-51" value="" style="group" connectable="0" vertex="1" parent="2iRlPU97kEJJlgAq3W9q-104">
          <mxGeometry x="125" width="120" height="50" as="geometry" />
        </mxCell>
        <object label="" id="2iRlPU97kEJJlgAq3W9q-4">
          <mxCell style="ellipse;whiteSpace=wrap;html=1;points=[[0,0,0,0,0],[0,0.5,0,0,0],[0,1,0,0,0],[0.5,0,0,0,0],[0.5,1,0,0,0],[1,0,0,0,0],[1,0.5,0,0,0],[1,1,0,0,0]];" vertex="1" parent="2iRlPU97kEJJlgAq3W9q-51">
            <mxGeometry width="120" height="50" as="geometry" />
          </mxCell>
        </object>
        <mxCell id="2iRlPU97kEJJlgAq3W9q-16" value="&lt;h1&gt;&lt;font style=&quot;font-size: 11px; font-weight: normal;&quot;&gt;Fesztivál&lt;/font&gt;&lt;/h1&gt;" style="text;html=1;strokeColor=none;fillColor=none;spacing=5;spacingTop=-20;whiteSpace=wrap;overflow=hidden;rounded=0;" vertex="1" parent="2iRlPU97kEJJlgAq3W9q-51">
          <mxGeometry x="30" y="2" width="60" height="40" as="geometry" />
        </mxCell>
        <mxCell id="2iRlPU97kEJJlgAq3W9q-57" value="" style="endArrow=none;html=1;rounded=0;entryX=0.183;entryY=0.86;entryDx=0;entryDy=0;entryPerimeter=0;exitX=1;exitY=0.25;exitDx=0;exitDy=0;" edge="1" parent="2iRlPU97kEJJlgAq3W9q-104" source="2iRlPU97kEJJlgAq3W9q-30" target="2iRlPU97kEJJlgAq3W9q-4">
          <mxGeometry width="50" height="50" relative="1" as="geometry">
            <mxPoint x="109" y="85" as="sourcePoint" />
            <mxPoint x="168" y="84" as="targetPoint" />
          </mxGeometry>
        </mxCell>
        <mxCell id="2iRlPU97kEJJlgAq3W9q-61" value="" style="endArrow=none;html=1;rounded=0;exitX=1;exitY=0.5;exitDx=0;exitDy=0;" edge="1" parent="2iRlPU97kEJJlgAq3W9q-104" source="2iRlPU97kEJJlgAq3W9q-78">
          <mxGeometry width="50" height="50" relative="1" as="geometry">
            <mxPoint x="56" y="85" as="sourcePoint" />
            <mxPoint x="160" y="51" as="targetPoint" />
          </mxGeometry>
        </mxCell>
        <mxCell id="2iRlPU97kEJJlgAq3W9q-62" value="" style="endArrow=none;html=1;rounded=0;" edge="1" parent="2iRlPU97kEJJlgAq3W9q-104" source="2iRlPU97kEJJlgAq3W9q-72">
          <mxGeometry width="50" height="50" relative="1" as="geometry">
            <mxPoint x="118" y="105" as="sourcePoint" />
            <mxPoint x="180" y="51" as="targetPoint" />
          </mxGeometry>
        </mxCell>
        <mxCell id="2iRlPU97kEJJlgAq3W9q-63" value="" style="endArrow=none;html=1;rounded=0;exitX=0;exitY=0.25;exitDx=0;exitDy=0;" edge="1" parent="2iRlPU97kEJJlgAq3W9q-104" source="2iRlPU97kEJJlgAq3W9q-44">
          <mxGeometry width="50" height="50" relative="1" as="geometry">
            <mxPoint x="210" y="101" as="sourcePoint" />
            <mxPoint x="200" y="51" as="targetPoint" />
          </mxGeometry>
        </mxCell>
        <mxCell id="2iRlPU97kEJJlgAq3W9q-66" value="" style="group" connectable="0" vertex="1" parent="2iRlPU97kEJJlgAq3W9q-104">
          <mxGeometry y="71" width="64.5" height="68" as="geometry" />
        </mxCell>
        <mxCell id="2iRlPU97kEJJlgAq3W9q-29" value="" style="rhombus;whiteSpace=wrap;html=1;" vertex="1" parent="2iRlPU97kEJJlgAq3W9q-66">
          <mxGeometry width="60" height="68" as="geometry" />
        </mxCell>
        <mxCell id="2iRlPU97kEJJlgAq3W9q-30" value="&lt;h1 style=&quot;font-size: 10px;&quot;&gt;&lt;span style=&quot;font-size: 10px; font-weight: 400;&quot;&gt;&lt;u&gt;FESZ_ID&lt;/u&gt;&lt;/span&gt;&lt;/h1&gt;" style="text;html=1;strokeColor=none;fillColor=none;spacing=5;spacingTop=-20;whiteSpace=wrap;overflow=hidden;rounded=0;fontSize=10;" vertex="1" parent="2iRlPU97kEJJlgAq3W9q-66">
          <mxGeometry x="2.5" y="32" width="62" height="8" as="geometry" />
        </mxCell>
        <mxCell id="2iRlPU97kEJJlgAq3W9q-73" value="" style="group" connectable="0" vertex="1" parent="2iRlPU97kEJJlgAq3W9q-104">
          <mxGeometry x="220" y="151" width="70" height="39" as="geometry" />
        </mxCell>
        <object label="" id="2iRlPU97kEJJlgAq3W9q-42">
          <mxCell style="ellipse;whiteSpace=wrap;html=1;points=[[0,0,0,0,0],[0,0.5,0,0,0],[0,1,0,0,0],[0.5,0,0,0,0],[0.5,1,0,0,0],[1,0,0,0,0],[1,0.5,0,0,0],[1,1,0,0,0]];" vertex="1" parent="2iRlPU97kEJJlgAq3W9q-73">
            <mxGeometry y="9" width="70" height="30" as="geometry" />
          </mxCell>
        </object>
        <mxCell id="2iRlPU97kEJJlgAq3W9q-44" value="&lt;h1&gt;&lt;span style=&quot;font-size: 11px; font-weight: 400;&quot;&gt;év&lt;/span&gt;&lt;/h1&gt;" style="text;html=1;strokeColor=none;fillColor=none;spacing=5;spacingTop=-20;whiteSpace=wrap;overflow=hidden;rounded=0;" vertex="1" parent="2iRlPU97kEJJlgAq3W9q-73">
          <mxGeometry x="22.5" width="25" height="37" as="geometry" />
        </mxCell>
        <mxCell id="2iRlPU97kEJJlgAq3W9q-79" value="" style="group" connectable="0" vertex="1" parent="2iRlPU97kEJJlgAq3W9q-104">
          <mxGeometry x="40" y="151" width="70" height="39" as="geometry" />
        </mxCell>
        <object label="" id="2iRlPU97kEJJlgAq3W9q-74">
          <mxCell style="ellipse;whiteSpace=wrap;html=1;points=[[0,0,0,0,0],[0,0.5,0,0,0],[0,1,0,0,0],[0.5,0,0,0,0],[0.5,1,0,0,0],[1,0,0,0,0],[1,0.5,0,0,0],[1,1,0,0,0]];" vertex="1" parent="2iRlPU97kEJJlgAq3W9q-79">
            <mxGeometry y="9" width="70" height="30" as="geometry" />
          </mxCell>
        </object>
        <mxCell id="2iRlPU97kEJJlgAq3W9q-78" value="&lt;h1&gt;&lt;span style=&quot;font-size: 11px; font-weight: 400;&quot;&gt;név&lt;/span&gt;&lt;/h1&gt;&lt;div&gt;&lt;span style=&quot;font-size: 11px; font-weight: 400;&quot;&gt;&lt;br&gt;&lt;/span&gt;&lt;/div&gt;" style="text;html=1;strokeColor=none;fillColor=none;spacing=5;spacingTop=-20;whiteSpace=wrap;overflow=hidden;rounded=0;" vertex="1" parent="2iRlPU97kEJJlgAq3W9q-79">
          <mxGeometry x="20.5" width="29.5" height="37" as="geometry" />
        </mxCell>
        <mxCell id="2iRlPU97kEJJlgAq3W9q-80" value="" style="group" connectable="0" vertex="1" parent="2iRlPU97kEJJlgAq3W9q-104">
          <mxGeometry x="138.75" y="150" width="70" height="40" as="geometry" />
        </mxCell>
        <object label="" id="2iRlPU97kEJJlgAq3W9q-71">
          <mxCell style="ellipse;whiteSpace=wrap;html=1;points=[[0,0,0,0,0],[0,0.5,0,0,0],[0,1,0,0,0],[0.5,0,0,0,0],[0.5,1,0,0,0],[1,0,0,0,0],[1,0.5,0,0,0],[1,1,0,0,0]];" vertex="1" parent="2iRlPU97kEJJlgAq3W9q-80">
            <mxGeometry y="10" width="70" height="30" as="geometry" />
          </mxCell>
        </object>
        <mxCell id="2iRlPU97kEJJlgAq3W9q-72" value="&lt;h1&gt;&lt;span style=&quot;font-size: 11px; font-weight: 400;&quot;&gt;helyszín&lt;/span&gt;&lt;/h1&gt;" style="text;html=1;strokeColor=none;fillColor=none;spacing=5;spacingTop=-20;whiteSpace=wrap;overflow=hidden;rounded=0;" vertex="1" parent="2iRlPU97kEJJlgAq3W9q-80">
          <mxGeometry x="11.25" y="4.5" width="47.5" height="30" as="geometry" />
        </mxCell>
        <mxCell id="2iRlPU97kEJJlgAq3W9q-149" value="" style="endArrow=none;dashed=1;html=1;rounded=0;" edge="1" parent="WIyWlLk6GJQsqaUBKTNV-1">
          <mxGeometry width="50" height="50" relative="1" as="geometry">
            <mxPoint x="-270" y="300" as="sourcePoint" />
            <mxPoint x="30" y="286" as="targetPoint" />
            <Array as="points">
              <mxPoint x="-270" y="410" />
              <mxPoint x="30" y="410" />
            </Array>
          </mxGeometry>
        </mxCell>
        <mxCell id="2iRlPU97kEJJlgAq3W9q-153" value="" style="endArrow=none;dashed=1;html=1;rounded=0;" edge="1" parent="WIyWlLk6GJQsqaUBKTNV-1">
          <mxGeometry width="50" height="50" relative="1" as="geometry">
            <mxPoint x="-290" y="290" as="sourcePoint" />
            <mxPoint x="290" y="278" as="targetPoint" />
            <Array as="points">
              <mxPoint x="-290" y="430" />
              <mxPoint x="290" y="430" />
            </Array>
          </mxGeometry>
        </mxCell>
        <mxCell id="2iRlPU97kEJJlgAq3W9q-155" value="" style="group" connectable="0" vertex="1" parent="WIyWlLk6GJQsqaUBKTNV-1">
          <mxGeometry y="160" width="270" height="189" as="geometry" />
        </mxCell>
        <mxCell id="2iRlPU97kEJJlgAq3W9q-52" value="" style="group" connectable="0" vertex="1" parent="2iRlPU97kEJJlgAq3W9q-155">
          <mxGeometry x="90" width="120" height="50" as="geometry" />
        </mxCell>
        <object label="" id="2iRlPU97kEJJlgAq3W9q-6">
          <mxCell style="ellipse;whiteSpace=wrap;html=1;points=[[0,0,0,0,0],[0,0.5,0,0,0],[0,1,0,0,0],[0.5,0,0,0,0],[0.5,1,0,0,0],[1,0,0,0,0],[1,0.5,0,0,0],[1,1,0,0,0]];" vertex="1" parent="2iRlPU97kEJJlgAq3W9q-52">
            <mxGeometry width="120" height="50" as="geometry" />
          </mxCell>
        </object>
        <mxCell id="2iRlPU97kEJJlgAq3W9q-17" value="&lt;h1&gt;&lt;font style=&quot;font-size: 11px; font-weight: normal;&quot;&gt;Fellépő&lt;/font&gt;&lt;/h1&gt;" style="text;html=1;strokeColor=none;fillColor=none;spacing=5;spacingTop=-20;whiteSpace=wrap;overflow=hidden;rounded=0;" vertex="1" parent="2iRlPU97kEJJlgAq3W9q-52">
          <mxGeometry x="35" width="50" height="40" as="geometry" />
        </mxCell>
        <mxCell id="2iRlPU97kEJJlgAq3W9q-95" value="" style="group" connectable="0" vertex="1" parent="2iRlPU97kEJJlgAq3W9q-155">
          <mxGeometry x="200" y="140" width="70" height="39" as="geometry" />
        </mxCell>
        <object label="" id="2iRlPU97kEJJlgAq3W9q-96">
          <mxCell style="ellipse;whiteSpace=wrap;html=1;points=[[0,0,0,0,0],[0,0.5,0,0,0],[0,1,0,0,0],[0.5,0,0,0,0],[0.5,1,0,0,0],[1,0,0,0,0],[1,0.5,0,0,0],[1,1,0,0,0]];" vertex="1" parent="2iRlPU97kEJJlgAq3W9q-95">
            <mxGeometry y="9" width="70" height="30" as="geometry" />
          </mxCell>
        </object>
        <mxCell id="2iRlPU97kEJJlgAq3W9q-97" value="&lt;h1&gt;&lt;span style=&quot;font-size: 11px; font-weight: 400;&quot;&gt;díj&lt;/span&gt;&lt;/h1&gt;&lt;div&gt;&lt;span style=&quot;font-size: 11px; font-weight: 400;&quot;&gt;&lt;br&gt;&lt;/span&gt;&lt;/div&gt;" style="text;html=1;strokeColor=none;fillColor=none;spacing=5;spacingTop=-20;whiteSpace=wrap;overflow=hidden;rounded=0;" vertex="1" parent="2iRlPU97kEJJlgAq3W9q-95">
          <mxGeometry x="22.5" width="25" height="37" as="geometry" />
        </mxCell>
        <mxCell id="2iRlPU97kEJJlgAq3W9q-98" value="" style="group" connectable="0" vertex="1" parent="2iRlPU97kEJJlgAq3W9q-155">
          <mxGeometry x="40" y="150" width="70" height="39" as="geometry" />
        </mxCell>
        <object label="" id="2iRlPU97kEJJlgAq3W9q-99">
          <mxCell style="ellipse;whiteSpace=wrap;html=1;points=[[0,0,0,0,0],[0,0.5,0,0,0],[0,1,0,0,0],[0.5,0,0,0,0],[0.5,1,0,0,0],[1,0,0,0,0],[1,0.5,0,0,0],[1,1,0,0,0]];" vertex="1" parent="2iRlPU97kEJJlgAq3W9q-98">
            <mxGeometry y="1" width="70" height="30" as="geometry" />
          </mxCell>
        </object>
        <mxCell id="2iRlPU97kEJJlgAq3W9q-100" value="&lt;h1&gt;&lt;span style=&quot;font-size: 11px; font-weight: 400;&quot;&gt;név&lt;/span&gt;&lt;/h1&gt;&lt;div&gt;&lt;span style=&quot;font-size: 11px; font-weight: 400;&quot;&gt;&lt;br&gt;&lt;/span&gt;&lt;/div&gt;" style="text;html=1;strokeColor=none;fillColor=none;spacing=5;spacingTop=-20;whiteSpace=wrap;overflow=hidden;rounded=0;" vertex="1" parent="2iRlPU97kEJJlgAq3W9q-98">
          <mxGeometry x="20.5" y="-6" width="29.5" height="37" as="geometry" />
        </mxCell>
        <mxCell id="2iRlPU97kEJJlgAq3W9q-105" value="" style="group" connectable="0" vertex="1" parent="2iRlPU97kEJJlgAq3W9q-155">
          <mxGeometry x="119" y="141" width="70" height="40" as="geometry" />
        </mxCell>
        <object label="" id="2iRlPU97kEJJlgAq3W9q-102">
          <mxCell style="ellipse;whiteSpace=wrap;html=1;points=[[0,0,0,0,0],[0,0.5,0,0,0],[0,1,0,0,0],[0.5,0,0,0,0],[0.5,1,0,0,0],[1,0,0,0,0],[1,0.5,0,0,0],[1,1,0,0,0]];" vertex="1" parent="2iRlPU97kEJJlgAq3W9q-105">
            <mxGeometry y="10" width="70" height="30" as="geometry" />
          </mxCell>
        </object>
        <mxCell id="2iRlPU97kEJJlgAq3W9q-103" value="&lt;h1&gt;&lt;span style=&quot;font-size: 11px; font-weight: 400;&quot;&gt;ország&lt;/span&gt;&lt;/h1&gt;" style="text;html=1;strokeColor=none;fillColor=none;spacing=5;spacingTop=-20;whiteSpace=wrap;overflow=hidden;rounded=0;" vertex="1" parent="2iRlPU97kEJJlgAq3W9q-105">
          <mxGeometry x="11.25" width="47.5" height="40" as="geometry" />
        </mxCell>
        <mxCell id="2iRlPU97kEJJlgAq3W9q-106" value="" style="group" connectable="0" vertex="1" parent="2iRlPU97kEJJlgAq3W9q-155">
          <mxGeometry y="58" width="64.5" height="68" as="geometry" />
        </mxCell>
        <mxCell id="2iRlPU97kEJJlgAq3W9q-107" value="" style="rhombus;whiteSpace=wrap;html=1;" vertex="1" parent="2iRlPU97kEJJlgAq3W9q-106">
          <mxGeometry width="60" height="68" as="geometry" />
        </mxCell>
        <mxCell id="2iRlPU97kEJJlgAq3W9q-108" value="&lt;h1 style=&quot;font-size: 10px;&quot;&gt;&lt;span style=&quot;font-size: 10px; font-weight: 400;&quot;&gt;&lt;u&gt;FEL_ID&lt;/u&gt;&lt;/span&gt;&lt;/h1&gt;" style="text;html=1;strokeColor=none;fillColor=none;spacing=5;spacingTop=-20;whiteSpace=wrap;overflow=hidden;rounded=0;fontSize=10;" vertex="1" parent="2iRlPU97kEJJlgAq3W9q-106">
          <mxGeometry x="2.5" y="32" width="57.5" height="8" as="geometry" />
        </mxCell>
        <mxCell id="2iRlPU97kEJJlgAq3W9q-110" value="" style="endArrow=none;html=1;rounded=0;exitX=1;exitY=0;exitDx=0;exitDy=0;" edge="1" parent="2iRlPU97kEJJlgAq3W9q-155" source="2iRlPU97kEJJlgAq3W9q-108" target="2iRlPU97kEJJlgAq3W9q-6">
          <mxGeometry width="50" height="50" relative="1" as="geometry">
            <mxPoint x="50" y="100" as="sourcePoint" />
            <mxPoint x="114.5" y="50" as="targetPoint" />
          </mxGeometry>
        </mxCell>
        <mxCell id="2iRlPU97kEJJlgAq3W9q-111" value="" style="endArrow=none;html=1;rounded=0;entryX=0.317;entryY=0.96;entryDx=0;entryDy=0;entryPerimeter=0;" edge="1" parent="2iRlPU97kEJJlgAq3W9q-155" target="2iRlPU97kEJJlgAq3W9q-6">
          <mxGeometry width="50" height="50" relative="1" as="geometry">
            <mxPoint x="70" y="150" as="sourcePoint" />
            <mxPoint x="130" y="57" as="targetPoint" />
          </mxGeometry>
        </mxCell>
        <mxCell id="2iRlPU97kEJJlgAq3W9q-112" value="" style="endArrow=none;html=1;rounded=0;entryX=0.317;entryY=0.96;entryDx=0;entryDy=0;entryPerimeter=0;" edge="1" parent="2iRlPU97kEJJlgAq3W9q-155">
          <mxGeometry width="50" height="50" relative="1" as="geometry">
            <mxPoint x="150" y="150" as="sourcePoint" />
            <mxPoint x="154" y="50" as="targetPoint" />
          </mxGeometry>
        </mxCell>
        <mxCell id="2iRlPU97kEJJlgAq3W9q-113" value="" style="endArrow=none;html=1;rounded=0;entryX=0.317;entryY=0.96;entryDx=0;entryDy=0;entryPerimeter=0;exitX=0;exitY=0.25;exitDx=0;exitDy=0;" edge="1" parent="2iRlPU97kEJJlgAq3W9q-155" source="2iRlPU97kEJJlgAq3W9q-97">
          <mxGeometry width="50" height="50" relative="1" as="geometry">
            <mxPoint x="170" y="137.5" as="sourcePoint" />
            <mxPoint x="182" y="46.5" as="targetPoint" />
          </mxGeometry>
        </mxCell>
        <mxCell id="2iRlPU97kEJJlgAq3W9q-156" value="" style="group" connectable="0" vertex="1" parent="WIyWlLk6GJQsqaUBKTNV-1">
          <mxGeometry x="260" y="160" width="340" height="181" as="geometry" />
        </mxCell>
        <mxCell id="2iRlPU97kEJJlgAq3W9q-53" value="" style="group" connectable="0" vertex="1" parent="2iRlPU97kEJJlgAq3W9q-156">
          <mxGeometry x="70" width="120" height="50" as="geometry" />
        </mxCell>
        <object label="" id="2iRlPU97kEJJlgAq3W9q-8">
          <mxCell style="ellipse;whiteSpace=wrap;html=1;points=[[0,0,0,0,0],[0,0.5,0,0,0],[0,1,0,0,0],[0.5,0,0,0,0],[0.5,1,0,0,0],[1,0,0,0,0],[1,0.5,0,0,0],[1,1,0,0,0]];" vertex="1" parent="2iRlPU97kEJJlgAq3W9q-53">
            <mxGeometry width="120" height="50" as="geometry" />
          </mxCell>
        </object>
        <mxCell id="2iRlPU97kEJJlgAq3W9q-18" value="&lt;h1&gt;&lt;font style=&quot;font-size: 11px; font-weight: normal;&quot;&gt;Tulajdonos&lt;/font&gt;&lt;/h1&gt;" style="text;html=1;strokeColor=none;fillColor=none;spacing=5;spacingTop=-20;whiteSpace=wrap;overflow=hidden;rounded=0;" vertex="1" parent="2iRlPU97kEJJlgAq3W9q-53">
          <mxGeometry x="24.5" y="3" width="71" height="40" as="geometry" />
        </mxCell>
        <mxCell id="2iRlPU97kEJJlgAq3W9q-124" value="" style="group" connectable="0" vertex="1" parent="2iRlPU97kEJJlgAq3W9q-156">
          <mxGeometry y="50" width="64.5" height="68" as="geometry" />
        </mxCell>
        <mxCell id="2iRlPU97kEJJlgAq3W9q-125" value="" style="rhombus;whiteSpace=wrap;html=1;" vertex="1" parent="2iRlPU97kEJJlgAq3W9q-124">
          <mxGeometry width="60" height="68" as="geometry" />
        </mxCell>
        <mxCell id="2iRlPU97kEJJlgAq3W9q-126" value="&lt;h1 style=&quot;font-size: 10px;&quot;&gt;&lt;span style=&quot;font-size: 10px; font-weight: 400;&quot;&gt;&lt;u&gt;T_ID&lt;/u&gt;&lt;/span&gt;&lt;/h1&gt;" style="text;html=1;strokeColor=none;fillColor=none;spacing=5;spacingTop=-20;whiteSpace=wrap;overflow=hidden;rounded=0;fontSize=10;" vertex="1" parent="2iRlPU97kEJJlgAq3W9q-124">
          <mxGeometry x="13" y="30" width="33.75" height="8" as="geometry" />
        </mxCell>
        <mxCell id="2iRlPU97kEJJlgAq3W9q-131" value="" style="group" connectable="0" vertex="1" parent="2iRlPU97kEJJlgAq3W9q-156">
          <mxGeometry x="30" y="141" width="70" height="39" as="geometry" />
        </mxCell>
        <object label="" id="2iRlPU97kEJJlgAq3W9q-132">
          <mxCell style="ellipse;whiteSpace=wrap;html=1;points=[[0,0,0,0,0],[0,0.5,0,0,0],[0,1,0,0,0],[0.5,0,0,0,0],[0.5,1,0,0,0],[1,0,0,0,0],[1,0.5,0,0,0],[1,1,0,0,0]];" vertex="1" parent="2iRlPU97kEJJlgAq3W9q-131">
            <mxGeometry y="9" width="70" height="30" as="geometry" />
          </mxCell>
        </object>
        <mxCell id="2iRlPU97kEJJlgAq3W9q-133" value="&lt;h1&gt;&lt;span style=&quot;font-size: 11px; font-weight: 400;&quot;&gt;név&lt;/span&gt;&lt;/h1&gt;" style="text;html=1;strokeColor=none;fillColor=none;spacing=5;spacingTop=-20;whiteSpace=wrap;overflow=hidden;rounded=0;" vertex="1" parent="2iRlPU97kEJJlgAq3W9q-131">
          <mxGeometry x="21.5" y="-1" width="25" height="37" as="geometry" />
        </mxCell>
        <mxCell id="2iRlPU97kEJJlgAq3W9q-135" value="" style="group" connectable="0" vertex="1" parent="2iRlPU97kEJJlgAq3W9q-156">
          <mxGeometry x="110" y="142" width="70" height="39" as="geometry" />
        </mxCell>
        <object label="" id="2iRlPU97kEJJlgAq3W9q-136">
          <mxCell style="ellipse;whiteSpace=wrap;html=1;points=[[0,0,0,0,0],[0,0.5,0,0,0],[0,1,0,0,0],[0.5,0,0,0,0],[0.5,1,0,0,0],[1,0,0,0,0],[1,0.5,0,0,0],[1,1,0,0,0]];" vertex="1" parent="2iRlPU97kEJJlgAq3W9q-135">
            <mxGeometry y="9" width="70" height="30" as="geometry" />
          </mxCell>
        </object>
        <mxCell id="2iRlPU97kEJJlgAq3W9q-137" value="&lt;h1&gt;&lt;span style=&quot;font-size: 11px; font-weight: 400;&quot;&gt;adószám&lt;/span&gt;&lt;/h1&gt;" style="text;html=1;strokeColor=none;fillColor=none;spacing=5;spacingTop=-20;whiteSpace=wrap;overflow=hidden;rounded=0;" vertex="1" parent="2iRlPU97kEJJlgAq3W9q-135">
          <mxGeometry x="9" width="56.5" height="37" as="geometry" />
        </mxCell>
        <mxCell id="2iRlPU97kEJJlgAq3W9q-138" value="" style="group" connectable="0" vertex="1" parent="2iRlPU97kEJJlgAq3W9q-156">
          <mxGeometry x="190" y="141" width="70" height="39" as="geometry" />
        </mxCell>
        <object label="" id="2iRlPU97kEJJlgAq3W9q-139">
          <mxCell style="ellipse;whiteSpace=wrap;html=1;points=[[0,0,0,0,0],[0,0.5,0,0,0],[0,1,0,0,0],[0.5,0,0,0,0],[0.5,1,0,0,0],[1,0,0,0,0],[1,0.5,0,0,0],[1,1,0,0,0]];" vertex="1" parent="2iRlPU97kEJJlgAq3W9q-138">
            <mxGeometry y="9" width="70" height="30" as="geometry" />
          </mxCell>
        </object>
        <mxCell id="2iRlPU97kEJJlgAq3W9q-140" value="&lt;h1&gt;&lt;span style=&quot;font-size: 11px; font-weight: 400;&quot;&gt;alapítás&lt;/span&gt;&lt;/h1&gt;" style="text;html=1;strokeColor=none;fillColor=none;spacing=5;spacingTop=-20;whiteSpace=wrap;overflow=hidden;rounded=0;" vertex="1" parent="2iRlPU97kEJJlgAq3W9q-138">
          <mxGeometry x="6.75" y="-1" width="56.5" height="37" as="geometry" />
        </mxCell>
        <mxCell id="2iRlPU97kEJJlgAq3W9q-141" value="" style="group" connectable="0" vertex="1" parent="2iRlPU97kEJJlgAq3W9q-156">
          <mxGeometry x="270" y="142" width="70" height="39" as="geometry" />
        </mxCell>
        <object label="" id="2iRlPU97kEJJlgAq3W9q-142">
          <mxCell style="ellipse;whiteSpace=wrap;html=1;points=[[0,0,0,0,0],[0,0.5,0,0,0],[0,1,0,0,0],[0.5,0,0,0,0],[0.5,1,0,0,0],[1,0,0,0,0],[1,0.5,0,0,0],[1,1,0,0,0]];" vertex="1" parent="2iRlPU97kEJJlgAq3W9q-141">
            <mxGeometry y="9" width="70" height="30" as="geometry" />
          </mxCell>
        </object>
        <mxCell id="2iRlPU97kEJJlgAq3W9q-143" value="&lt;h1&gt;&lt;span style=&quot;font-size: 11px; font-weight: 400;&quot;&gt;bevétel&lt;/span&gt;&lt;/h1&gt;" style="text;html=1;strokeColor=none;fillColor=none;spacing=5;spacingTop=-20;whiteSpace=wrap;overflow=hidden;rounded=0;" vertex="1" parent="2iRlPU97kEJJlgAq3W9q-141">
          <mxGeometry x="13.5" y="-1" width="56.5" height="37" as="geometry" />
        </mxCell>
        <mxCell id="2iRlPU97kEJJlgAq3W9q-144" value="" style="endArrow=none;html=1;rounded=0;exitX=1;exitY=0.5;exitDx=0;exitDy=0;entryX=0;entryY=1;entryDx=0;entryDy=0;" edge="1" parent="2iRlPU97kEJJlgAq3W9q-156" source="2iRlPU97kEJJlgAq3W9q-125" target="2iRlPU97kEJJlgAq3W9q-18">
          <mxGeometry width="50" height="50" relative="1" as="geometry">
            <mxPoint x="-27" y="159" as="sourcePoint" />
            <mxPoint x="90" y="50" as="targetPoint" />
          </mxGeometry>
        </mxCell>
        <mxCell id="2iRlPU97kEJJlgAq3W9q-145" value="" style="endArrow=none;html=1;rounded=0;" edge="1" parent="2iRlPU97kEJJlgAq3W9q-156">
          <mxGeometry width="50" height="50" relative="1" as="geometry">
            <mxPoint x="80" y="150" as="sourcePoint" />
            <mxPoint x="110" y="50" as="targetPoint" />
          </mxGeometry>
        </mxCell>
        <mxCell id="2iRlPU97kEJJlgAq3W9q-146" value="" style="endArrow=none;html=1;rounded=0;" edge="1" parent="2iRlPU97kEJJlgAq3W9q-156">
          <mxGeometry width="50" height="50" relative="1" as="geometry">
            <mxPoint x="140" y="150" as="sourcePoint" />
            <mxPoint x="130" y="50" as="targetPoint" />
          </mxGeometry>
        </mxCell>
        <mxCell id="2iRlPU97kEJJlgAq3W9q-147" value="" style="endArrow=none;html=1;rounded=0;exitX=0;exitY=0.5;exitDx=0;exitDy=0;" edge="1" parent="2iRlPU97kEJJlgAq3W9q-156" source="2iRlPU97kEJJlgAq3W9q-140">
          <mxGeometry width="50" height="50" relative="1" as="geometry">
            <mxPoint x="139" y="142" as="sourcePoint" />
            <mxPoint x="150" y="50" as="targetPoint" />
          </mxGeometry>
        </mxCell>
        <mxCell id="2iRlPU97kEJJlgAq3W9q-148" value="" style="endArrow=none;html=1;rounded=0;entryX=0.825;entryY=0.96;entryDx=0;entryDy=0;entryPerimeter=0;" edge="1" parent="2iRlPU97kEJJlgAq3W9q-156" target="2iRlPU97kEJJlgAq3W9q-8">
          <mxGeometry width="50" height="50" relative="1" as="geometry">
            <mxPoint x="280" y="160" as="sourcePoint" />
            <mxPoint x="180" y="50" as="targetPoint" />
          </mxGeometry>
        </mxCell>
        <mxCell id="2iRlPU97kEJJlgAq3W9q-169" value="" style="group" connectable="0" vertex="1" parent="WIyWlLk6GJQsqaUBKTNV-1">
          <mxGeometry x="626" y="301" width="70" height="39" as="geometry" />
        </mxCell>
        <object label="" id="2iRlPU97kEJJlgAq3W9q-170">
          <mxCell style="ellipse;whiteSpace=wrap;html=1;points=[[0,0,0,0,0],[0,0.5,0,0,0],[0,1,0,0,0],[0.5,0,0,0,0],[0.5,1,0,0,0],[1,0,0,0,0],[1,0.5,0,0,0],[1,1,0,0,0]];" vertex="1" parent="2iRlPU97kEJJlgAq3W9q-169">
            <mxGeometry y="9" width="70" height="30" as="geometry" />
          </mxCell>
        </object>
        <mxCell id="2iRlPU97kEJJlgAq3W9q-171" value="&lt;h1&gt;&lt;span style=&quot;font-size: 11px; font-weight: 400;&quot;&gt;név&lt;/span&gt;&lt;/h1&gt;" style="text;html=1;strokeColor=none;fillColor=none;spacing=5;spacingTop=-20;whiteSpace=wrap;overflow=hidden;rounded=0;" vertex="1" parent="2iRlPU97kEJJlgAq3W9q-169">
          <mxGeometry x="21.5" y="-1" width="25" height="37" as="geometry" />
        </mxCell>
        <mxCell id="2iRlPU97kEJJlgAq3W9q-184" value="" style="group" connectable="0" vertex="1" parent="WIyWlLk6GJQsqaUBKTNV-1">
          <mxGeometry x="580" y="216.5" width="64.5" height="68" as="geometry" />
        </mxCell>
        <mxCell id="2iRlPU97kEJJlgAq3W9q-185" value="" style="rhombus;whiteSpace=wrap;html=1;" vertex="1" parent="2iRlPU97kEJJlgAq3W9q-184">
          <mxGeometry width="60" height="68" as="geometry" />
        </mxCell>
        <mxCell id="2iRlPU97kEJJlgAq3W9q-186" value="&lt;h1 style=&quot;font-size: 10px;&quot;&gt;&lt;span style=&quot;font-size: 10px; font-weight: 400;&quot;&gt;&lt;u&gt;R_ID&lt;/u&gt;&lt;/span&gt;&lt;/h1&gt;" style="text;html=1;strokeColor=none;fillColor=none;spacing=5;spacingTop=-20;whiteSpace=wrap;overflow=hidden;rounded=0;fontSize=10;" vertex="1" parent="2iRlPU97kEJJlgAq3W9q-184">
          <mxGeometry x="13" y="30" width="33.75" height="8" as="geometry" />
        </mxCell>
        <mxCell id="2iRlPU97kEJJlgAq3W9q-210" value="" style="group" connectable="0" vertex="1" parent="WIyWlLk6GJQsqaUBKTNV-1">
          <mxGeometry x="600" y="360" width="220" height="168" as="geometry" />
        </mxCell>
        <mxCell id="2iRlPU97kEJJlgAq3W9q-175" value="" style="group" connectable="0" vertex="1" parent="2iRlPU97kEJJlgAq3W9q-210">
          <mxGeometry x="82" width="70" height="39" as="geometry" />
        </mxCell>
        <object label="" id="2iRlPU97kEJJlgAq3W9q-176">
          <mxCell style="ellipse;whiteSpace=wrap;html=1;points=[[0,0,0,0,0],[0,0.5,0,0,0],[0,1,0,0,0],[0.5,0,0,0,0],[0.5,1,0,0,0],[1,0,0,0,0],[1,0.5,0,0,0],[1,1,0,0,0]];" vertex="1" parent="2iRlPU97kEJJlgAq3W9q-175">
            <mxGeometry y="9" width="70" height="30" as="geometry" />
          </mxCell>
        </object>
        <mxCell id="2iRlPU97kEJJlgAq3W9q-177" value="&lt;h1&gt;&lt;span style=&quot;font-size: 11px; font-weight: 400;&quot;&gt;lakcím&lt;/span&gt;&lt;/h1&gt;" style="text;html=1;strokeColor=none;fillColor=none;spacing=5;spacingTop=-20;whiteSpace=wrap;overflow=hidden;rounded=0;" vertex="1" parent="2iRlPU97kEJJlgAq3W9q-175">
          <mxGeometry x="6.75" y="-1" width="56.5" height="37" as="geometry" />
        </mxCell>
        <mxCell id="2iRlPU97kEJJlgAq3W9q-191" value="" style="group" connectable="0" vertex="1" parent="2iRlPU97kEJJlgAq3W9q-210">
          <mxGeometry x="150" y="128" width="70" height="39" as="geometry" />
        </mxCell>
        <object label="" id="2iRlPU97kEJJlgAq3W9q-192">
          <mxCell style="ellipse;whiteSpace=wrap;html=1;points=[[0,0,0,0,0],[0,0.5,0,0,0],[0,1,0,0,0],[0.5,0,0,0,0],[0.5,1,0,0,0],[1,0,0,0,0],[1,0.5,0,0,0],[1,1,0,0,0]];" vertex="1" parent="2iRlPU97kEJJlgAq3W9q-191">
            <mxGeometry y="9" width="70" height="30" as="geometry" />
          </mxCell>
        </object>
        <mxCell id="2iRlPU97kEJJlgAq3W9q-193" value="&lt;h1&gt;&lt;span style=&quot;font-size: 11px; font-weight: 400;&quot;&gt;házszám&lt;/span&gt;&lt;/h1&gt;" style="text;html=1;strokeColor=none;fillColor=none;spacing=5;spacingTop=-20;whiteSpace=wrap;overflow=hidden;rounded=0;" vertex="1" parent="2iRlPU97kEJJlgAq3W9q-191">
          <mxGeometry x="7" width="70" height="37" as="geometry" />
        </mxCell>
        <mxCell id="2iRlPU97kEJJlgAq3W9q-197" value="" style="group" connectable="0" vertex="1" parent="2iRlPU97kEJJlgAq3W9q-210">
          <mxGeometry x="75" y="128" width="70" height="40" as="geometry" />
        </mxCell>
        <object label="" id="2iRlPU97kEJJlgAq3W9q-198">
          <mxCell style="ellipse;whiteSpace=wrap;html=1;points=[[0,0,0,0,0],[0,0.5,0,0,0],[0,1,0,0,0],[0.5,0,0,0,0],[0.5,1,0,0,0],[1,0,0,0,0],[1,0.5,0,0,0],[1,1,0,0,0]];" vertex="1" parent="2iRlPU97kEJJlgAq3W9q-197">
            <mxGeometry y="10" width="70" height="30" as="geometry" />
          </mxCell>
        </object>
        <mxCell id="2iRlPU97kEJJlgAq3W9q-204" value="" style="endArrow=none;html=1;rounded=0;entryX=0.317;entryY=0.96;entryDx=0;entryDy=0;entryPerimeter=0;" edge="1" parent="2iRlPU97kEJJlgAq3W9q-210">
          <mxGeometry width="50" height="50" relative="1" as="geometry">
            <mxPoint x="40" y="139" as="sourcePoint" />
            <mxPoint x="98.03999999999996" y="37" as="targetPoint" />
          </mxGeometry>
        </mxCell>
        <mxCell id="2iRlPU97kEJJlgAq3W9q-205" value="" style="endArrow=none;html=1;rounded=0;entryX=0.317;entryY=0.96;entryDx=0;entryDy=0;entryPerimeter=0;" edge="1" parent="2iRlPU97kEJJlgAq3W9q-210">
          <mxGeometry width="50" height="50" relative="1" as="geometry">
            <mxPoint x="113" y="139" as="sourcePoint" />
            <mxPoint x="117" y="39" as="targetPoint" />
          </mxGeometry>
        </mxCell>
        <mxCell id="2iRlPU97kEJJlgAq3W9q-206" value="" style="endArrow=none;html=1;rounded=0;entryX=0.317;entryY=0.96;entryDx=0;entryDy=0;entryPerimeter=0;" edge="1" parent="2iRlPU97kEJJlgAq3W9q-210">
          <mxGeometry width="50" height="50" relative="1" as="geometry">
            <mxPoint x="170" y="138" as="sourcePoint" />
            <mxPoint x="130" y="39" as="targetPoint" />
          </mxGeometry>
        </mxCell>
        <mxCell id="2iRlPU97kEJJlgAq3W9q-207" value="" style="group" connectable="0" vertex="1" parent="2iRlPU97kEJJlgAq3W9q-210">
          <mxGeometry y="128" width="70" height="39" as="geometry" />
        </mxCell>
        <object label="" id="2iRlPU97kEJJlgAq3W9q-195">
          <mxCell style="ellipse;whiteSpace=wrap;html=1;points=[[0,0,0,0,0],[0,0.5,0,0,0],[0,1,0,0,0],[0.5,0,0,0,0],[0.5,1,0,0,0],[1,0,0,0,0],[1,0.5,0,0,0],[1,1,0,0,0]];container=0;" vertex="1" parent="2iRlPU97kEJJlgAq3W9q-207">
            <mxGeometry y="9" width="70" height="30" as="geometry" />
          </mxCell>
        </object>
        <mxCell id="2iRlPU97kEJJlgAq3W9q-196" value="&lt;h1&gt;&lt;span style=&quot;font-size: 11px; font-weight: 400;&quot;&gt;település&lt;/span&gt;&lt;/h1&gt;" style="text;html=1;strokeColor=none;fillColor=none;spacing=5;spacingTop=-20;whiteSpace=wrap;overflow=hidden;rounded=0;container=0;" vertex="1" parent="2iRlPU97kEJJlgAq3W9q-207">
          <mxGeometry x="5" width="60" height="37" as="geometry" />
        </mxCell>
        <mxCell id="2iRlPU97kEJJlgAq3W9q-199" value="&lt;h1&gt;&lt;span style=&quot;font-size: 11px; font-weight: 400;&quot;&gt;utca&lt;/span&gt;&lt;/h1&gt;" style="text;html=1;strokeColor=none;fillColor=none;spacing=5;spacingTop=-20;whiteSpace=wrap;overflow=hidden;rounded=0;" vertex="1" parent="2iRlPU97kEJJlgAq3W9q-210">
          <mxGeometry x="95" y="128" width="47.5" height="40" as="geometry" />
        </mxCell>
        <mxCell id="2iRlPU97kEJJlgAq3W9q-211" value="" style="endArrow=none;html=1;rounded=0;" edge="1" parent="WIyWlLk6GJQsqaUBKTNV-1">
          <mxGeometry width="50" height="50" relative="1" as="geometry">
            <mxPoint x="640" y="250" as="sourcePoint" />
            <mxPoint x="686" y="200" as="targetPoint" />
          </mxGeometry>
        </mxCell>
        <mxCell id="2iRlPU97kEJJlgAq3W9q-212" value="" style="endArrow=none;html=1;rounded=0;entryX=0.5;entryY=1;entryDx=0;entryDy=0;entryPerimeter=0;" edge="1" parent="WIyWlLk6GJQsqaUBKTNV-1" target="2iRlPU97kEJJlgAq3W9q-7">
          <mxGeometry width="50" height="50" relative="1" as="geometry">
            <mxPoint x="660" y="310" as="sourcePoint" />
            <mxPoint x="690" y="200" as="targetPoint" />
          </mxGeometry>
        </mxCell>
        <mxCell id="2iRlPU97kEJJlgAq3W9q-213" value="" style="endArrow=none;html=1;rounded=0;entryX=0.617;entryY=0.96;entryDx=0;entryDy=0;entryPerimeter=0;exitX=0;exitY=0.5;exitDx=0;exitDy=0;" edge="1" parent="WIyWlLk6GJQsqaUBKTNV-1" source="2iRlPU97kEJJlgAq3W9q-183" target="2iRlPU97kEJJlgAq3W9q-7">
          <mxGeometry width="50" height="50" relative="1" as="geometry">
            <mxPoint x="750" y="310" as="sourcePoint" />
            <mxPoint x="717.5" y="201" as="targetPoint" />
          </mxGeometry>
        </mxCell>
        <mxCell id="2iRlPU97kEJJlgAq3W9q-214" value="" style="endArrow=none;html=1;rounded=0;" edge="1" parent="WIyWlLk6GJQsqaUBKTNV-1" source="2iRlPU97kEJJlgAq3W9q-177">
          <mxGeometry width="50" height="50" relative="1" as="geometry">
            <mxPoint x="782.5" y="301" as="sourcePoint" />
            <mxPoint x="717" y="200" as="targetPoint" />
          </mxGeometry>
        </mxCell>
        <mxCell id="2iRlPU97kEJJlgAq3W9q-240" value="" style="group" connectable="0" vertex="1" parent="WIyWlLk6GJQsqaUBKTNV-1">
          <mxGeometry x="1090" y="150" width="180" height="189" as="geometry" />
        </mxCell>
        <mxCell id="2iRlPU97kEJJlgAq3W9q-234" value="" style="endArrow=none;html=1;rounded=0;entryX=0.5;entryY=1;entryDx=0;entryDy=0;entryPerimeter=0;" edge="1" parent="2iRlPU97kEJJlgAq3W9q-240" target="2iRlPU97kEJJlgAq3W9q-13">
          <mxGeometry width="50" height="50" relative="1" as="geometry">
            <mxPoint x="118" y="160" as="sourcePoint" />
            <mxPoint x="106.25" y="60" as="targetPoint" />
          </mxGeometry>
        </mxCell>
        <mxCell id="2iRlPU97kEJJlgAq3W9q-233" value="" style="endArrow=none;html=1;rounded=0;exitX=1;exitY=0.5;exitDx=0;exitDy=0;entryX=0.225;entryY=0.96;entryDx=0;entryDy=0;entryPerimeter=0;" edge="1" parent="2iRlPU97kEJJlgAq3W9q-240" source="2iRlPU97kEJJlgAq3W9q-225" target="2iRlPU97kEJJlgAq3W9q-13">
          <mxGeometry width="50" height="50" relative="1" as="geometry">
            <mxPoint x="46.25" y="100" as="sourcePoint" />
            <mxPoint x="96.25" y="50" as="targetPoint" />
          </mxGeometry>
        </mxCell>
        <mxCell id="2iRlPU97kEJJlgAq3W9q-241" value="" style="group" connectable="0" vertex="1" parent="2iRlPU97kEJJlgAq3W9q-240">
          <mxGeometry x="-0.62" y="66.5" width="60" height="68" as="geometry" />
        </mxCell>
        <mxCell id="2iRlPU97kEJJlgAq3W9q-225" value="" style="rhombus;whiteSpace=wrap;html=1;container=0;" vertex="1" parent="2iRlPU97kEJJlgAq3W9q-241">
          <mxGeometry width="60" height="68" as="geometry" />
        </mxCell>
        <mxCell id="2iRlPU97kEJJlgAq3W9q-226" value="&lt;h1 style=&quot;font-size: 10px;&quot;&gt;&lt;span style=&quot;font-size: 10px; font-weight: 400;&quot;&gt;&lt;u&gt;K_ID&lt;/u&gt;&lt;/span&gt;&lt;/h1&gt;" style="text;html=1;strokeColor=none;fillColor=none;spacing=5;spacingTop=-20;whiteSpace=wrap;overflow=hidden;rounded=0;fontSize=10;container=0;" vertex="1" parent="2iRlPU97kEJJlgAq3W9q-241">
          <mxGeometry x="13.12" y="30" width="33.75" height="8" as="geometry" />
        </mxCell>
        <mxCell id="2iRlPU97kEJJlgAq3W9q-242" value="" style="group" connectable="0" vertex="1" parent="2iRlPU97kEJJlgAq3W9q-240">
          <mxGeometry x="85" y="150" width="70" height="39" as="geometry" />
        </mxCell>
        <object label="" id="2iRlPU97kEJJlgAq3W9q-231">
          <mxCell style="ellipse;whiteSpace=wrap;html=1;points=[[0,0,0,0,0],[0,0.5,0,0,0],[0,1,0,0,0],[0.5,0,0,0,0],[0.5,1,0,0,0],[1,0,0,0,0],[1,0.5,0,0,0],[1,1,0,0,0]];container=0;" vertex="1" parent="2iRlPU97kEJJlgAq3W9q-242">
            <mxGeometry y="9" width="70" height="30" as="geometry" />
          </mxCell>
        </object>
        <mxCell id="2iRlPU97kEJJlgAq3W9q-232" value="&lt;h1&gt;&lt;span style=&quot;font-size: 11px; font-weight: 400;&quot;&gt;kérdező&lt;/span&gt;&lt;/h1&gt;" style="text;html=1;strokeColor=none;fillColor=none;spacing=5;spacingTop=-20;whiteSpace=wrap;overflow=hidden;rounded=0;container=0;" vertex="1" parent="2iRlPU97kEJJlgAq3W9q-242">
          <mxGeometry x="13.5" width="48.5" height="37" as="geometry" />
        </mxCell>
        <mxCell id="2iRlPU97kEJJlgAq3W9q-243" value="" style="group" connectable="0" vertex="1" parent="2iRlPU97kEJJlgAq3W9q-240">
          <mxGeometry x="60" width="120" height="50" as="geometry" />
        </mxCell>
        <object label="" id="2iRlPU97kEJJlgAq3W9q-13">
          <mxCell style="ellipse;whiteSpace=wrap;html=1;points=[[0,0,0,0,0],[0,0.5,0,0,0],[0,1,0,0,0],[0.5,0,0,0,0],[0.5,1,0,0,0],[1,0,0,0,0],[1,0.5,0,0,0],[1,1,0,0,0]];container=0;" vertex="1" parent="2iRlPU97kEJJlgAq3W9q-243">
            <mxGeometry width="120" height="50" as="geometry" />
          </mxCell>
        </object>
        <mxCell id="2iRlPU97kEJJlgAq3W9q-20" value="&lt;h1&gt;&lt;font style=&quot;font-size: 11px; font-weight: normal;&quot;&gt;Közvélemény&lt;/font&gt;&lt;/h1&gt;" style="text;html=1;strokeColor=none;fillColor=none;spacing=5;spacingTop=-20;whiteSpace=wrap;overflow=hidden;rounded=0;container=0;" vertex="1" parent="2iRlPU97kEJJlgAq3W9q-243">
          <mxGeometry x="15" width="90" height="40" as="geometry" />
        </mxCell>
        <mxCell id="2iRlPU97kEJJlgAq3W9q-248" value="" style="group" connectable="0" vertex="1" parent="WIyWlLk6GJQsqaUBKTNV-1">
          <mxGeometry x="890" y="140" width="120" height="50" as="geometry" />
        </mxCell>
        <object label="" id="2iRlPU97kEJJlgAq3W9q-245">
          <mxCell style="ellipse;whiteSpace=wrap;html=1;points=[[0,0,0,0,0],[0,0.5,0,0,0],[0,1,0,0,0],[0.5,0,0,0,0],[0.5,1,0,0,0],[1,0,0,0,0],[1,0.5,0,0,0],[1,1,0,0,0]];" vertex="1" parent="2iRlPU97kEJJlgAq3W9q-248">
            <mxGeometry width="120" height="50" as="geometry" />
          </mxCell>
        </object>
        <mxCell id="2iRlPU97kEJJlgAq3W9q-246" value="&lt;h1&gt;&lt;font style=&quot;font-size: 11px; font-weight: normal;&quot;&gt;Nyelvtudás&lt;/font&gt;&lt;/h1&gt;" style="text;html=1;strokeColor=none;fillColor=none;spacing=5;spacingTop=-20;whiteSpace=wrap;overflow=hidden;rounded=0;" vertex="1" parent="2iRlPU97kEJJlgAq3W9q-248">
          <mxGeometry x="24.5" width="71" height="40" as="geometry" />
        </mxCell>
        <mxCell id="2iRlPU97kEJJlgAq3W9q-249" value="" style="group" connectable="0" vertex="1" parent="WIyWlLk6GJQsqaUBKTNV-1">
          <mxGeometry x="847" y="215.5" width="64.5" height="68" as="geometry" />
        </mxCell>
        <mxCell id="2iRlPU97kEJJlgAq3W9q-250" value="" style="rhombus;whiteSpace=wrap;html=1;" vertex="1" parent="2iRlPU97kEJJlgAq3W9q-249">
          <mxGeometry width="60" height="68" as="geometry" />
        </mxCell>
        <mxCell id="2iRlPU97kEJJlgAq3W9q-251" value="&lt;h1 style=&quot;font-size: 10px;&quot;&gt;&lt;span style=&quot;font-size: 10px; font-weight: 400;&quot;&gt;&lt;u&gt;NY_ID&lt;/u&gt;&lt;/span&gt;&lt;/h1&gt;" style="text;html=1;strokeColor=none;fillColor=none;spacing=5;spacingTop=-20;whiteSpace=wrap;overflow=hidden;rounded=0;fontSize=10;" vertex="1" parent="2iRlPU97kEJJlgAq3W9q-249">
          <mxGeometry x="9" y="30" width="41" height="8" as="geometry" />
        </mxCell>
        <mxCell id="2iRlPU97kEJJlgAq3W9q-257" value="" style="group" connectable="0" vertex="1" parent="WIyWlLk6GJQsqaUBKTNV-1">
          <mxGeometry x="891" y="289" width="70" height="39" as="geometry" />
        </mxCell>
        <object label="" id="2iRlPU97kEJJlgAq3W9q-258">
          <mxCell style="ellipse;whiteSpace=wrap;html=1;points=[[0,0,0,0,0],[0,0.5,0,0,0],[0,1,0,0,0],[0.5,0,0,0,0],[0.5,1,0,0,0],[1,0,0,0,0],[1,0.5,0,0,0],[1,1,0,0,0]];container=0;" vertex="1" parent="2iRlPU97kEJJlgAq3W9q-257">
            <mxGeometry y="9" width="70" height="30" as="geometry" />
          </mxCell>
        </object>
        <mxCell id="2iRlPU97kEJJlgAq3W9q-259" value="&lt;h1&gt;&lt;span style=&quot;font-size: 11px; font-weight: 400;&quot;&gt;nyelv&lt;/span&gt;&lt;/h1&gt;" style="text;html=1;strokeColor=none;fillColor=none;spacing=5;spacingTop=-20;whiteSpace=wrap;overflow=hidden;rounded=0;container=0;" vertex="1" parent="2iRlPU97kEJJlgAq3W9q-257">
          <mxGeometry x="13.5" width="48.5" height="37" as="geometry" />
        </mxCell>
        <mxCell id="2iRlPU97kEJJlgAq3W9q-260" value="" style="group" connectable="0" vertex="1" parent="WIyWlLk6GJQsqaUBKTNV-1">
          <mxGeometry x="981" y="291" width="70" height="39" as="geometry" />
        </mxCell>
        <object label="" id="2iRlPU97kEJJlgAq3W9q-261">
          <mxCell style="ellipse;whiteSpace=wrap;html=1;points=[[0,0,0,0,0],[0,0.5,0,0,0],[0,1,0,0,0],[0.5,0,0,0,0],[0.5,1,0,0,0],[1,0,0,0,0],[1,0.5,0,0,0],[1,1,0,0,0]];container=0;" vertex="1" parent="2iRlPU97kEJJlgAq3W9q-260">
            <mxGeometry y="9" width="70" height="30" as="geometry" />
          </mxCell>
        </object>
        <mxCell id="2iRlPU97kEJJlgAq3W9q-262" value="&lt;h1&gt;&lt;span style=&quot;font-size: 11px; font-weight: 400;&quot;&gt;szint&lt;/span&gt;&lt;/h1&gt;" style="text;html=1;strokeColor=none;fillColor=none;spacing=5;spacingTop=-20;whiteSpace=wrap;overflow=hidden;rounded=0;container=0;" vertex="1" parent="2iRlPU97kEJJlgAq3W9q-260">
          <mxGeometry x="13.5" width="48.5" height="37" as="geometry" />
        </mxCell>
        <mxCell id="2iRlPU97kEJJlgAq3W9q-263" value="" style="group" connectable="0" vertex="1" parent="WIyWlLk6GJQsqaUBKTNV-1">
          <mxGeometry x="710" y="301" width="100" height="40" as="geometry" />
        </mxCell>
        <object label="" id="2iRlPU97kEJJlgAq3W9q-182">
          <mxCell style="ellipse;whiteSpace=wrap;html=1;points=[[0,0,0,0,0],[0,0.5,0,0,0],[0,1,0,0,0],[0.5,0,0,0,0],[0.5,1,0,0,0],[1,0,0,0,0],[1,0.5,0,0,0],[1,1,0,0,0]];" vertex="1" parent="2iRlPU97kEJJlgAq3W9q-263">
            <mxGeometry x="30" y="10" width="100" height="30" as="geometry" />
          </mxCell>
        </object>
        <mxCell id="2iRlPU97kEJJlgAq3W9q-183" value="&lt;h1&gt;&lt;span style=&quot;font-size: 11px; font-weight: 400;&quot;&gt;diákigazolvány&lt;/span&gt;&lt;/h1&gt;" style="text;html=1;strokeColor=none;fillColor=none;spacing=5;spacingTop=-20;whiteSpace=wrap;overflow=hidden;rounded=0;" vertex="1" parent="2iRlPU97kEJJlgAq3W9q-263">
          <mxGeometry x="45" width="85" height="37" as="geometry" />
        </mxCell>
        <mxCell id="2iRlPU97kEJJlgAq3W9q-266" value="" style="endArrow=none;html=1;rounded=0;entryX=0.283;entryY=0.94;entryDx=0;entryDy=0;entryPerimeter=0;exitX=1;exitY=0.5;exitDx=0;exitDy=0;" edge="1" parent="WIyWlLk6GJQsqaUBKTNV-1" source="2iRlPU97kEJJlgAq3W9q-250" target="2iRlPU97kEJJlgAq3W9q-245">
          <mxGeometry width="50" height="50" relative="1" as="geometry">
            <mxPoint x="930" y="300" as="sourcePoint" />
            <mxPoint x="932" y="190" as="targetPoint" />
          </mxGeometry>
        </mxCell>
        <mxCell id="2iRlPU97kEJJlgAq3W9q-268" value="" style="endArrow=none;html=1;rounded=0;entryX=0.367;entryY=1;entryDx=0;entryDy=0;entryPerimeter=0;" edge="1" parent="WIyWlLk6GJQsqaUBKTNV-1" target="2iRlPU97kEJJlgAq3W9q-245">
          <mxGeometry width="50" height="50" relative="1" as="geometry">
            <mxPoint x="929" y="300" as="sourcePoint" />
            <mxPoint x="934" y="197" as="targetPoint" />
          </mxGeometry>
        </mxCell>
        <mxCell id="2iRlPU97kEJJlgAq3W9q-269" value="" style="endArrow=none;html=1;rounded=0;exitX=0;exitY=0.25;exitDx=0;exitDy=0;" edge="1" parent="WIyWlLk6GJQsqaUBKTNV-1" source="2iRlPU97kEJJlgAq3W9q-262">
          <mxGeometry width="50" height="50" relative="1" as="geometry">
            <mxPoint x="976" y="295" as="sourcePoint" />
            <mxPoint x="960" y="190" as="targetPoint" />
          </mxGeometry>
        </mxCell>
      </root>
    </mxGraphModel>
  </diagram>
</mxfile>
